# xmcd CD database file
#
# Track frame offsets:
#	150
#	26090
#	48837
#
# Disc length: 994 seconds
#
# Revision: 0
# Processed by: cddbd v1.5.1PL2 Copyright (c) Steve Scherf et al.
# Submitted via: CDex 1.51
#
DISCID=1c03e003
DTITLE=EPO - ある朝、風に吹かれて
DYEAR=1992
DGENRE=JPop
TTITLE0=ある朝、風に吹かれて
TTITLE1=見知らぬ手と手
TTITLE2=ある朝、風に吹かれて オリジナル・カラオケ
EXTD=YEAR: 1992
EXTT0=
EXTT1=
EXTT2=
PLAYORDER=
